# Blender v2.79 (sub 0) OBJ File: ''
# www.blender.org
mtllib feather.mtl
o Group.001
v 0.007867 -0.000050 0.078011
v 0.004709 0.022005 0.236942
v -0.007609 0.008149 0.076813
v -0.004763 0.029674 0.235604
v 0.013716 0.002326 -0.001627
v 0.016873 0.012002 0.076989
v 0.002606 -0.012248 -0.000221
v 0.012771 0.027957 0.236833
v -0.014296 -0.005551 -0.000890
v 0.003327 0.032434 0.356078
v -0.001538 0.028404 0.356162
v -0.007190 0.032025 0.355378
v 0.052194 0.043861 0.246804
v 0.050722 0.019328 0.084335
v 0.048571 0.011421 0.026283
v 0.111069 0.044979 0.125504
v 0.077006 0.031246 0.124122
v 0.046206 0.043489 0.375069
v 0.071635 0.052308 0.389895
v 0.092786 0.059151 0.407893
v 0.035419 0.038103 0.498774
v 0.047704 0.044110 0.503482
v 0.019990 0.029513 0.488188
v -0.017529 0.013852 0.596816
v 0.038003 0.038967 0.520667
v 0.082769 0.052129 0.260259
v 0.120769 0.061690 0.285404
v 0.094602 0.056502 0.397472
v 0.113695 0.047118 0.142805
v 0.119349 0.060736 0.267088
v -0.045617 0.040116 0.245905
v -0.044843 0.010848 0.084184
v -0.115462 0.022062 0.122393
v -0.047501 -0.004558 0.017213
v -0.080215 0.016107 0.121991
v -0.046553 0.038890 0.374284
v -0.077091 0.045435 0.388296
v -0.063164 0.031156 0.498118
v -0.099830 0.050446 0.404883
v -0.076241 0.039723 0.501877
v -0.040714 0.025634 0.487628
v -0.068720 0.038437 0.518751
v -0.080247 0.045155 0.256166
v -0.125232 0.051534 0.284055
v -0.117490 0.048802 0.393794
v -0.116591 0.024376 0.142313
v -0.124698 0.051650 0.262832
v -0.063857 0.037746 0.496980
v -0.078207 0.056044 0.386463
v -0.082033 0.062131 0.253233
v -0.082002 0.033083 0.119058
v 0.076056 0.040271 0.122562
v 0.081757 0.061756 0.258595
v 0.070858 0.059677 0.388623
v 0.034914 0.042896 0.497946
v 0.010470 0.010721 -0.001747
v 0.013131 0.023766 0.075981
v -0.004766 0.021867 0.075719
v 0.008127 0.040861 0.235158
v -0.002487 0.039727 0.234779
v -0.009445 0.008636 -0.001832
v 0.000362 0.041641 0.354708
v -0.006096 0.040955 0.354349
v -0.009309 0.031477 0.475286
v 0.019173 0.037285 0.486845
v 0.051180 0.053488 0.245140
v 0.045388 0.030938 0.082222
v 0.044949 0.055442 0.373003
v -0.041528 0.033376 0.486291
v -0.046577 0.027311 0.081338
v -0.047350 0.056579 0.243060
v -0.048232 0.054833 0.371530
v -0.009835 0.022571 0.488772
vt 0.281065 0.134113
vt 0.259491 0.401320
vt 0.250949 0.131612
vt 0.241180 0.399037
vt 0.300576 0.001877
vt 0.299154 0.134328
vt 0.278254 0.001883
vt 0.275490 0.402390
vt 0.245246 0.000000
vt 0.245114 0.601112
vt 0.235447 0.600455
vt 0.224497 0.599024
vt 0.352372 0.423877
vt 0.365139 0.150135
vt 0.366526 0.052271
vt 0.480268 0.226402
vt 0.413117 0.219914
vt 0.327776 0.637478
vt 0.376494 0.665212
vt 0.416440 0.697693
vt 0.294083 0.842578
vt 0.317906 0.852048
vt 0.264607 0.822781
vt 0.179625 0.999478
vt 0.296996 0.879429
vt 0.411332 0.449700
vt 0.483753 0.495786
vt 0.420989 0.680191
vt 0.483752 0.255713
vt 0.482768 0.464996
vt 0.160073 0.413827
vt 0.177071 0.141063
vt 0.034674 0.200029
vt 0.178178 0.027540
vt 0.103873 0.201731
vt 0.145378 0.627958
vt 0.084091 0.649430
vt 0.100168 0.832559
vt 0.037844 0.675704
vt 0.074282 0.838571
vt 0.145225 0.816390
vt 0.087352 0.867247
vt 0.091081 0.428548
vt 0.000000 0.471961
vt 0.004194 0.655554
vt 0.030518 0.233415
vt 0.003173 0.436585
vt 0.994485 0.727612
vt 0.994485 0.751921
vt 0.984177 0.744858
vt 0.996555 0.551638
vt 0.983755 0.550092
vt 0.996555 0.514507
vt 0.987874 0.472226
vt 0.966695 0.409176
vt 0.987874 0.407175
vt 0.999671 0.825875
vt 0.981476 0.817279
vt 0.999671 0.789096
vt 0.995141 0.329247
vt 0.966695 0.314514
vt 0.995141 0.265375
vt 0.999899 0.134818
vt 0.999899 0.207131
vt 0.966695 0.200536
vt 1.000000 0.513503
vt 0.966695 0.513503
vt 0.968716 0.472226
vt 0.999899 0.265375
vt 0.966695 0.213729
vt 0.999899 0.207131
vt 0.984821 0.664080
vt 0.966695 0.592203
vt 0.984821 0.591987
vt 0.966695 0.731690
vt 0.984177 0.727612
vt 0.984177 0.789096
vt 0.983677 0.329247
vt 0.986032 0.407175
vt 0.966695 0.407175
vt 0.986032 0.727612
vt 0.966695 0.727612
vt 0.973606 0.664080
vt 0.983755 0.551876
vt 0.998554 0.551638
vt 0.998554 0.591987
vt 0.981476 0.789096
vt 0.981476 0.836694
vt 0.966695 0.836041
vt 0.992580 0.779428
vt 0.984177 0.755917
vt 0.992580 0.751921
vt 0.984821 0.642915
vt 0.994081 0.640676
vt 0.994081 0.664080
vt 0.966695 0.591987
vt 0.980774 0.513503
vt 0.983755 0.591987
vt 0.776390 0.867067
vt 0.741332 0.869080
vt 0.750986 0.600254
vt 0.730215 0.601822
vt 0.779009 0.998107
vt 0.739977 1.000000
vt 0.994500 0.134818
vt 0.966695 0.006500
vt 0.994500 0.000000
vt 0.724667 0.401067
vt 0.712041 0.402235
vt 0.695085 0.201115
vt 0.668662 0.000000
vt 0.749705 0.179090
vt 0.834035 0.579197
vt 0.838849 0.853526
vt 0.963239 0.774909
vt 0.851291 0.948163
vt 0.894928 0.782979
vt 0.785823 0.998260
vt 0.809904 0.365911
vt 0.859175 0.337423
vt 0.779330 0.158869
vt 0.900535 0.303504
vt 0.803899 0.148503
vt 0.783517 0.120944
vt 0.892469 0.553657
vt 0.966695 0.505737
vt 0.905205 0.320964
vt 0.966695 0.745634
vt 0.965641 0.536524
vt 0.630633 0.185174
vt 0.658332 0.862649
vt 0.640367 0.590355
vt 0.519409 0.799963
vt 0.584911 0.802045
vt 0.664107 0.972197
vt 0.731104 0.999852
vt 0.626891 0.375896
vt 0.566525 0.353262
vt 0.522616 0.324629
vt 0.585521 0.168786
vt 0.560621 0.161454
vt 0.573919 0.132750
vt 0.570955 0.575735
vt 0.489007 0.344695
vt 0.483752 0.528477
vt 0.486751 0.563887
vt 0.515232 0.766601
vt 0.205749 0.820588
vn 0.1820 -0.9724 0.1460
vn 0.0653 -0.9930 0.0983
vn -0.4814 -0.8648 0.1425
vn -0.5743 -0.8159 0.0675
vn 0.7916 -0.6083 0.0582
vn 0.7619 -0.6435 0.0730
vn 0.1880 -0.9648 0.1840
vn 0.6679 -0.7382 0.0947
vn -0.3376 -0.9181 0.2074
vn 0.6231 -0.7809 0.0449
vn 0.0430 -0.9990 0.0110
vn -0.5654 -0.8243 -0.0274
vn 0.2614 -0.9617 0.0819
vn 0.2840 -0.9553 0.0817
vn 0.2448 -0.9619 0.1217
vn 0.2220 -0.9674 0.1220
vn 0.2525 -0.9618 0.1061
vn 0.3296 -0.9392 0.0962
vn 0.2762 -0.9534 0.1210
vn 0.1669 -0.9783 0.1225
vn 0.3082 -0.9513 0.0014
vn 0.2694 -0.9630 -0.0054
vn 0.3084 -0.9512 0.0092
vn 0.3536 -0.9354 0.0082
vn 0.3928 -0.9196 0.0059
vn 0.3236 -0.9459 -0.0233
vn 0.3309 -0.9434 -0.0231
vn 0.4390 -0.8983 0.0192
vn 0.2452 -0.9666 0.0748
vn 0.2077 -0.9780 0.0189
vn 0.2762 -0.9535 0.1210
vn 0.2761 -0.9535 0.1211
vn -0.1256 -0.9877 0.0926
vn -0.0399 -0.9839 0.1743
vn -0.1671 -0.9825 0.0823
vn -0.0554 -0.9832 0.1737
vn -0.0555 -0.9832 0.1738
vn -0.0155 -0.9830 0.1828
vn -0.0558 -0.9803 0.1892
vn 0.0236 -0.9812 0.1915
vn -0.1973 -0.9796 -0.0392
vn -0.1825 -0.9824 -0.0392
vn -0.2297 -0.9727 -0.0329
vn -0.3452 -0.9379 -0.0341
vn -0.3715 -0.9277 -0.0371
vn -0.2304 -0.9714 -0.0578
vn -0.2472 -0.9686 -0.0267
vn -0.3960 -0.9179 0.0252
vn -0.1029 -0.9895 0.1011
vn -0.1083 -0.9941 -0.0020
vn -0.1046 -0.9719 0.2108
vn -0.1042 -0.9720 0.2106
vn 0.3864 0.1964 0.9012
vn -0.9678 -0.1382 -0.2103
vn 0.1476 0.1834 0.9719
vn -0.6039 -0.1971 -0.7723
vn -0.5360 -0.1982 -0.8206
vn 0.1713 0.1853 0.9676
vn -0.5120 -0.1983 -0.8358
vn 0.0373 0.1740 0.9840
vn 0.4861 -0.0988 -0.8683
vn -0.0966 0.1596 0.9824
vn 0.5643 -0.0827 -0.8214
vn -0.2143 0.1444 0.9660
vn -0.3315 0.1264 0.9349
vn 0.6573 -0.0606 -0.7512
vn 0.9895 0.0839 -0.1173
vn -0.4013 0.1148 0.9087
vn 0.5170 0.8454 -0.1341
vn 0.2919 0.9441 -0.1529
vn 0.9239 0.3731 -0.0847
vn -0.4448 0.8893 -0.1065
vn -0.1053 0.9922 -0.0674
vn -0.1053 0.9922 -0.0673
vn -0.6556 0.7500 -0.0873
vn -0.9381 0.3452 0.0283
vn -0.1062 0.9939 0.0288
vn -0.1063 0.9939 0.0289
vn -0.1063 0.9919 0.0690
vn -0.2702 0.9553 0.1203
vn -0.2703 0.9581 0.0952
vn -0.2628 0.9601 0.0955
vn -0.2538 0.9644 -0.0740
vn -0.2148 0.9738 -0.0749
vn -0.1494 0.9682 -0.2006
vn -0.1178 0.9709 -0.2084
vn -0.0204 0.9608 -0.2764
vn -0.0519 0.9571 -0.2849
vn -0.0712 0.9802 -0.1846
vn -0.0832 0.9525 -0.2930
vn -0.2628 0.9646 0.0224
vn -0.2778 0.9604 0.0222
vn -0.1378 0.9890 0.0533
vn -0.2233 0.9694 0.1019
vn -0.1063 0.9881 0.1112
vn -0.2927 0.9487 0.1196
vn -0.0974 0.9930 -0.0673
vn 0.0282 0.9991 0.0312
vn 0.0282 0.9991 0.0311
vn -0.0329 0.9900 -0.1371
vn 0.1985 0.9725 0.1215
vn 0.1748 0.9750 0.1373
vn 0.2052 0.9702 0.1288
vn -0.0279 0.9561 -0.2918
vn 0.1746 0.9812 -0.0819
vn 0.0914 0.9597 -0.2656
vn 0.2819 0.9565 -0.0746
vn -0.3100 0.8540 -0.4178
vn -0.2013 0.9395 -0.2773
vn -0.1798 0.8960 -0.4060
vn -0.0476 0.9225 -0.3831
vn 0.2219 0.9723 0.0734
vn 0.2884 0.9555 0.0623
vn 0.0206 0.9959 0.0885
vn -0.0113 0.9906 0.1362
vn 0.1487 0.9808 0.1258
vn 0.2883 0.9528 0.0950
vn -0.0970 0.9911 -0.0908
vn -0.1847 0.9818 0.0451
vn -0.1846 0.9818 0.0451
vn -0.3197 0.9231 -0.2135
vn 0.2391 -0.9695 -0.0539
vn -0.1248 -0.9886 -0.0841
vn 0.6384 -0.7696 0.0112
vn -0.5311 -0.8443 -0.0710
usemtl diffuse
s 1
f 1/1/1 2/2/2 3/3/3
f 2/2/2 4/4/4 3/3/3
f 5/5/5 6/6/6 7/7/7
f 6/6/6 1/1/1 7/7/7
f 6/6/6 8/8/8 1/1/1
f 8/8/8 2/2/2 1/1/1
f 1/1/1 3/3/3 7/7/7
f 7/7/7 3/3/3 9/9/9
f 8/8/8 10/10/10 2/2/2
f 11/11/11 2/2/2 10/10/10
f 2/2/2 11/11/11 4/4/4
f 11/11/11 12/12/12 4/4/4
f 13/13/13 8/8/14 14/14/15
f 8/8/14 6/6/16 14/14/15
f 15/15/17 16/16/18 14/14/15
f 16/16/18 17/17/19 14/14/15
f 5/5/20 15/15/17 6/6/16
f 6/6/16 15/15/17 14/14/15
f 18/18/21 10/10/22 13/13/13
f 10/10/22 8/8/14 13/13/13
f 19/19/23 20/20/24 21/21/25
f 20/20/24 22/22/24 21/21/25
f 23/23/26 21/21/25 24/24/27
f 25/25/28 24/24/27 21/21/25
f 26/26/29 27/27/30 19/19/23
f 27/27/30 28/28/30 19/19/23
f 17/17/19 29/29/31 26/26/29
f 29/29/31 30/30/32 26/26/29
f 18/18/21 19/19/23 23/23/26
f 19/19/23 21/21/25 23/23/26
f 14/14/15 17/17/19 13/13/13
f 17/17/19 26/26/29 13/13/13
f 19/19/23 18/18/21 26/26/29
f 26/26/29 18/18/21 13/13/13
f 31/31/33 32/32/34 4/4/35
f 32/32/34 3/3/36 4/4/35
f 33/33/37 34/34/38 35/35/39
f 34/34/38 32/32/34 35/35/39
f 9/9/40 3/3/36 34/34/38
f 3/3/36 32/32/34 34/34/38
f 36/36/41 31/31/33 12/12/42
f 31/31/33 4/4/35 12/12/42
f 37/37/43 38/38/44 39/39/45
f 39/39/45 38/38/44 40/40/45
f 41/41/46 24/24/47 38/38/44
f 42/42/48 38/38/44 24/24/47
f 43/43/49 37/37/43 44/44/50
f 44/44/50 37/37/43 45/45/50
f 35/35/39 43/43/49 46/46/51
f 46/46/51 43/43/49 47/47/52
f 36/36/41 41/41/46 37/37/43
f 37/37/43 41/41/46 38/38/44
f 32/32/34 31/31/33 35/35/39
f 35/35/39 31/31/33 43/43/49
f 43/43/49 31/31/33 37/37/43
f 31/31/33 36/36/41 37/37/43
f 40/48/53 38/49/53 48/50/53
f 48/51/54 38/52/54 42/53/54
f 45/54/55 37/55/55 49/56/55
f 49/57/56 37/58/56 39/59/56
f 50/60/57 43/61/57 44/62/57
f 47/63/58 43/64/58 50/65/58
f 51/66/59 35/67/59 46/68/59
f 33/69/60 35/70/60 51/71/60
f 29/72/61 17/73/61 52/74/61
f 52/75/62 17/76/62 16/77/62
f 27/78/63 26/79/63 53/80/63
f 53/81/64 26/82/64 30/83/64
f 54/84/65 19/85/65 28/86/65
f 20/87/66 19/88/66 54/89/66
f 25/90/67 21/91/67 55/92/67
f 55/93/68 21/94/68 22/95/68
f 56/96/69 57/97/70 5/98/71
f 57/99/70 58/100/72 59/101/73
f 60/102/74 59/101/73 58/100/72
f 56/103/69 61/104/75 57/99/70
f 57/99/70 61/104/75 58/100/72
f 58/105/72 61/106/75 9/107/76
f 59/101/73 60/102/74 62/108/77
f 63/109/78 62/108/77 60/102/74
f 64/110/79 62/108/77 63/109/78
f 24/111/80 65/112/81 64/110/82
f 59/101/83 66/113/84 57/99/85
f 66/113/84 67/114/86 57/99/85
f 16/115/87 15/116/88 52/117/89
f 15/116/88 67/114/86 52/117/89
f 5/118/90 57/99/85 15/116/88
f 57/99/85 67/114/86 15/116/88
f 68/119/91 66/113/84 62/108/92
f 66/113/84 59/101/83 62/108/92
f 54/120/93 55/121/94 20/122/95
f 20/122/95 55/121/94 22/123/95
f 62/108/92 64/110/82 68/119/91
f 64/110/82 65/112/81 68/119/91
f 65/112/81 24/111/80 55/121/94
f 25/124/96 55/121/94 24/111/80
f 53/125/97 54/120/93 27/126/98
f 27/126/98 54/120/93 28/127/99
f 52/117/89 53/125/97 29/128/100
f 29/128/100 53/125/97 30/129/100
f 68/119/91 65/112/81 54/120/93
f 54/120/93 65/112/81 55/121/94
f 66/113/84 53/125/97 67/114/86
f 52/117/89 67/114/86 53/125/97
f 53/125/97 66/113/84 54/120/93
f 66/113/84 68/119/91 54/120/93
f 24/111/101 64/110/102 69/130/103
f 70/131/104 71/132/105 58/100/106
f 71/132/105 60/102/107 58/100/106
f 33/133/108 51/134/109 34/135/110
f 34/135/110 51/134/109 70/131/104
f 58/100/106 9/136/111 70/131/104
f 9/136/111 34/135/110 70/131/104
f 71/132/105 72/137/112 60/102/107
f 72/137/112 63/109/113 60/102/107
f 49/138/114 39/139/115 48/140/116
f 39/139/115 40/141/115 48/140/116
f 63/109/113 72/137/112 64/110/102
f 64/110/102 72/137/112 69/130/103
f 69/130/103 48/140/116 24/111/101
f 42/142/117 24/111/101 48/140/116
f 49/138/114 50/143/118 45/144/119
f 44/145/120 45/144/119 50/143/118
f 50/143/118 51/134/109 47/146/121
f 46/147/121 47/146/121 51/134/109
f 49/138/114 48/140/116 72/137/112
f 48/140/116 69/130/103 72/137/112
f 71/132/105 70/131/104 50/143/118
f 51/134/109 50/143/118 70/131/104
f 50/143/118 49/138/114 71/132/105
f 49/138/114 72/137/112 71/132/105
f 10/10/22 18/18/21 73/148/122
f 18/18/21 23/23/26 73/148/122
f 12/12/42 73/148/123 36/36/41
f 41/41/46 36/36/41 73/148/123
f 11/11/11 10/10/10 73/148/124
f 23/23/26 24/24/27 73/148/122
f 73/148/123 24/24/47 41/41/46
f 12/12/12 11/11/11 73/148/125
